<svg xmlns="http://www.w3.org/2000/svg" viewBox="0 0 145 130" aria-hidden="true" role="img"><linearGradient id="boost-slingshot-30-a-uid-5" gradientUnits="userSpaceOnUse" x1="40.945" y1="44.813" x2="133.747" y2="44.813"><stop offset=".286" stop-color="#14a800"></stop><stop offset=".85" stop-color="#126b00"></stop></linearGradient><path d="M42.3 69.7c16.9.1 91.4-44.1 91.4-44.1l-.8-5.7s-72.2 37.5-89 39c-2 .2-4.6 10.8-1.6 10.8z" fill="url(#boost-slingshot-30-a-uid-5)"></path><linearGradient id="boost-slingshot-30-b-uid-5" gradientUnits="userSpaceOnUse" x1="35.366" y1="66.996" x2="56.111" y2="60.839"><stop offset=".507" stop-color="#126b00"></stop><stop offset=".714" stop-color="#14a800" stop-opacity="0"></stop></linearGradient><path d="M42.3 69.7c2.1 0 5.1-.7 8.7-1.8.2-2 .3-4.2-.1-5.7-.3-1.4-1.2-3-2-4.4-2 .6-3.7.9-5.1 1-.2 0-.3.1-.5.2l-1.6 10.5c.3.2.4.2.6.2z" fill="url(#boost-slingshot-30-b-uid-5)"></path><linearGradient id="boost-slingshot-30-c-uid-5" gradientUnits="userSpaceOnUse" x1="79.641" y1="51.571" x2="83.951" y2="48.627"><stop offset=".286" stop-color="#14a800" stop-opacity="0"></stop><stop offset=".85" stop-color="#126b00"></stop></linearGradient><path d="M78.1 46.5c1.6 2.1 3.5 4.4 5.4 6.9 3.5-1.8 7-3.6 10.4-5.4-1.8-2.2-3.6-4.4-5.2-6.3-3.6 1.6-7.1 3.2-10.6 4.8z" fill="url(#boost-slingshot-30-c-uid-5)"></path><linearGradient id="boost-slingshot-30-d-uid-5" gradientUnits="userSpaceOnUse" x1="129.891" y1="23.833" x2="133.747" y2="23.833"><stop offset=".286" stop-color="#114f02" stop-opacity="0"></stop><stop offset=".85" stop-color="#114f02"></stop></linearGradient><path d="M133.7 25.6l-.8-5.7s-1 .5-2.9 1.5c-.3 1.3-.3 4.7 0 4.8 0 .5-.1 1.1-.1 1.6 2.5-1.4 3.8-2.2 3.8-2.2z" fill="url(#boost-slingshot-30-d-uid-5)"></path><linearGradient id="boost-slingshot-30-e-uid-5" gradientUnits="userSpaceOnUse" x1="667.898" y1="122.707" x2="692.335" y2="122.707" gradientTransform="rotate(-11.008 51.265 3443.854)"><stop offset=".35" stop-color="#f2f7f2"></stop><stop offset=".79" stop-color="#dde6dd"></stop><stop offset=".93" stop-color="#d5e0d5"></stop></linearGradient><path d="M33.6 16c-.6-1.7-4.6-2.3-9.2-1.4-4.6.9-8 3-8 4.8L28.8 62c.1.4.2.8.2 1.3l2.7 51.9c.1-1.8 3.6-3.8 8-4.6 4.8-.9 9.1 1.4 9.1 1.4l.1.1-2.8-50.2c0-.6-.3-1.2-.5-1.7L33.6 16z" fill="url(#boost-slingshot-30-e-uid-5)"></path><path d="M45.2 59.4L32.6 14.9s-.1 0-.1-.1c-1.3-.7-3.7-.9-6.3-.6 0 0 13.9 34.6 15.8 47.1 1.8 11.9-.7 48.9-.7 48.9 2.2-.2 4.2.3 5.6.7 1.3.1 2.1.3 2.3.9l-3.7-49.3c-.2-.9-.1-2.2-.3-3.1z" fill="#d5e0d5"></path><linearGradient id="boost-slingshot-30-f-uid-5" gradientUnits="userSpaceOnUse" x1="681.685" y1="122.187" x2="701.011" y2="122.187" gradientTransform="rotate(-11.008 51.265 3443.854)"><stop offset=".224" stop-color="#fff"></stop><stop offset=".432" stop-color="#f1f5f1"></stop><stop offset=".699" stop-color="#e4ebe4"></stop></linearGradient><path d="M33.3 14.3c-.4-1-2-1.6-4.2-1.8L42.5 60c.2.8.4 1.7.4 2.5l1.6 45.8c2.4.2 4.3 2.3 4.5 3.5l-2.2-46.7c-.1-2.9-.6-5.8-1.4-8.6L33.3 14.3z" fill="url(#boost-slingshot-30-f-uid-5)"></path><path d="M44.3 54.8l-1.5-5.5L31.1 55 28 59.1l.8 2.8c.1.4.2.8.2 1.3l.4 7.2c.3-1.5 0-5.2 1.4-7.7 2.1-3.7 6.9-6.2 13.5-7.9z" fill="#c0ccc0"></path><path d="M42.4 49.5l-3.9 1.9 1.6 4.7c1.2-.5 2.5-.8 3.9-1.2l-1.6-5.4z" fill="#b3bcb3"></path><path d="M41.2 55.7c1.2-.4 2.3-.7 3.6-1l-1.6-5.5-3.4 1.6 1.4 4.9z" fill="#d5e0d5"></path><linearGradient id="boost-slingshot-30-g-uid-5" gradientUnits="userSpaceOnUse" x1="676.071" y1="178.41" x2="676.803" y2="171.581" gradientTransform="rotate(-11.008 51.265 3443.854)"><stop offset=".45" stop-color="#e4ebe4"></stop><stop offset=".93" stop-color="#c3d2c3"></stop></linearGradient><path d="M49 112c.4 1.8-3.2 4.1-8 5-4.8.9-8.9.2-9.3-1.7-.4-1.8 3.2-4.1 8-5 4.8-.8 9-.1 9.3 1.7z" fill="url(#boost-slingshot-30-g-uid-5)"></path><linearGradient id="boost-slingshot-30-h-uid-5" gradientUnits="userSpaceOnUse" x1="22.774" y1="61.162" x2="84.139" y2="32.284"><stop offset=".286" stop-color="#14a800"></stop><stop offset=".85" stop-color="#126b00"></stop></linearGradient><path d="M74.5 36.6s-47.1 7.5-48.7 17.9c-.2 1.5 1.9 8.5 3.4 12.2 0 0-.6-4.6 1-6 9-7.5 49.2-19.2 49.2-19.2l-4.9-4.9z" fill="url(#boost-slingshot-30-h-uid-5)"></path><linearGradient id="boost-slingshot-30-i-uid-5" gradientUnits="userSpaceOnUse" x1="1427.349" y1="583.716" x2="1449.822" y2="583.716" gradientTransform="rotate(-23.494 -518.85 3757.625)"><stop offset="0" stop-color="#c3d2c3" stop-opacity="0"></stop><stop offset=".01" stop-color="#c3d2c3" stop-opacity=".05"></stop><stop offset=".03" stop-color="#c3d2c3" stop-opacity=".3"></stop><stop offset=".06" stop-color="#c3d2c3" stop-opacity=".51"></stop><stop offset=".09" stop-color="#c3d2c3" stop-opacity=".69"></stop><stop offset=".12" stop-color="#c3d2c3" stop-opacity=".83"></stop><stop offset=".14" stop-color="#c3d2c3" stop-opacity=".92"></stop><stop offset=".17" stop-color="#c3d2c3" stop-opacity=".98"></stop><stop offset=".2" stop-color="#c3d2c3"></stop><stop offset=".29" stop-color="#c3d2c3"></stop><stop offset=".84" stop-color="#c3d2c3"></stop><stop offset=".87" stop-color="#c3d2c3" stop-opacity=".78"></stop><stop offset=".96" stop-color="#c3d2c3" stop-opacity=".23"></stop><stop offset="1" stop-color="#c3d2c3" stop-opacity=".01"></stop></linearGradient><path d="M20.9 62.4L1.1 71c-.2.1-.4 0-.5-.2 0-.2 0-.4.2-.5l19.8-8.6c.2-.1.4 0 .5.2.1.2 0 .4-.2.5z" fill="url(#boost-slingshot-30-i-uid-5)"></path><linearGradient id="boost-slingshot-30-j-uid-5" gradientUnits="userSpaceOnUse" x1="1423.702" y1="590.81" x2="1448.928" y2="590.81" gradientTransform="rotate(-23.494 -518.85 3757.625)"><stop offset="0" stop-color="#c3d2c3" stop-opacity="0"></stop><stop offset=".01" stop-color="#c3d2c3" stop-opacity=".05"></stop><stop offset=".03" stop-color="#c3d2c3" stop-opacity=".3"></stop><stop offset=".06" stop-color="#c3d2c3" stop-opacity=".51"></stop><stop offset=".09" stop-color="#c3d2c3" stop-opacity=".69"></stop><stop offset=".12" stop-color="#c3d2c3" stop-opacity=".83"></stop><stop offset=".14" stop-color="#c3d2c3" stop-opacity=".92"></stop><stop offset=".17" stop-color="#c3d2c3" stop-opacity=".98"></stop><stop offset=".2" stop-color="#c3d2c3"></stop><stop offset=".29" stop-color="#c3d2c3"></stop><stop offset=".84" stop-color="#c3d2c3"></stop><stop offset=".87" stop-color="#c3d2c3" stop-opacity=".78"></stop><stop offset=".96" stop-color="#c3d2c3" stop-opacity=".23"></stop><stop offset="1" stop-color="#c3d2c3" stop-opacity=".01"></stop></linearGradient><path d="M23 69.2L.6 79c-.2.1-.4 0-.5-.2 0-.2 0-.4.2-.5l22.4-9.7c.2-.1.4 0 .5.2 0 .2-.1.4-.2.4z" fill="url(#boost-slingshot-30-j-uid-5)"></path><linearGradient id="boost-slingshot-30-k-uid-5" gradientUnits="userSpaceOnUse" x1="1425.6" y1="597.903" x2="1448.071" y2="597.903" gradientTransform="rotate(-23.494 -518.85 3757.625)"><stop offset="0" stop-color="#c3d2c3" stop-opacity="0"></stop><stop offset=".01" stop-color="#c3d2c3" stop-opacity=".05"></stop><stop offset=".03" stop-color="#c3d2c3" stop-opacity=".3"></stop><stop offset=".06" stop-color="#c3d2c3" stop-opacity=".51"></stop><stop offset=".09" stop-color="#c3d2c3" stop-opacity=".69"></stop><stop offset=".12" stop-color="#c3d2c3" stop-opacity=".83"></stop><stop offset=".14" stop-color="#c3d2c3" stop-opacity=".92"></stop><stop offset=".17" stop-color="#c3d2c3" stop-opacity=".98"></stop><stop offset=".2" stop-color="#c3d2c3"></stop><stop offset=".29" stop-color="#c3d2c3"></stop><stop offset=".84" stop-color="#c3d2c3"></stop><stop offset=".87" stop-color="#c3d2c3" stop-opacity=".78"></stop><stop offset=".96" stop-color="#c3d2c3" stop-opacity=".23"></stop><stop offset="1" stop-color="#c3d2c3" stop-opacity=".01"></stop></linearGradient><path d="M25 76.1L5.1 84.7c-.2.1-.4 0-.5-.2 0-.2 0-.4.2-.5l19.8-8.6c.2-.1.4 0 .5.2.2.2 0 .4-.1.5z" fill="url(#boost-slingshot-30-k-uid-5)"></path><linearGradient id="boost-slingshot-30-l-uid-5" gradientUnits="userSpaceOnUse" x1="73.42" y1="40.806" x2="76.805" y2="38.268"><stop offset=".286" stop-color="#114f02" stop-opacity="0"></stop><stop offset=".85" stop-color="#114f02"></stop></linearGradient><path d="M75.7 42.6c2.3-.7 3.7-1.1 3.7-1.1l-4.9-4.8s-1.1.2-3.1.5l4.3 5.4z" fill="url(#boost-slingshot-30-l-uid-5)"></path><linearGradient id="boost-slingshot-30-m-uid-5" gradientUnits="userSpaceOnUse" x1="72.354" y1="65" x2="144.809" y2="65"><stop offset="0" stop-color="#bc5118"></stop><stop offset=".239" stop-color="#b84f18"></stop><stop offset=".459" stop-color="#ad4a17"></stop><stop offset=".67" stop-color="#9b4115"></stop><stop offset=".875" stop-color="#813413"></stop><stop offset="1" stop-color="#502b11"></stop></linearGradient><path d="M83.4 30.2c-2.1-2.6-5.8-3.4-8.7-1.7-2.5 1.4-3.2 4.6-1.5 6.9 0 0 37.6 45.4 42.9 62.3 1.7 5.4 4.2 16 4.2 16 .2 1.8 1.7 3.1 3.5 3.1l10.7-.4c2.4 0 4.3-2 4.1-4.4 0 0 .3-5.8-.1-17.6-.4-12.4 6.1-71.1 6.1-71.1.7-4.5-2.2-8.9-6.7-10-2.5-.6-5 1.2-5.2 3.8 0 0-1.1 40.7-6.1 49.5-2.6 4.5-9.1 5-12.6 1.1.1-.1-30.6-37.5-30.6-37.5z" fill="url(#boost-slingshot-30-m-uid-5)"></path><radialGradient id="boost-slingshot-30-n-uid-5" cx="120.624" cy="53.062" r="47.246" gradientTransform="matrix(-.1883 .9821 -.4553 -.08729 167.494 -60.772)" gradientUnits="userSpaceOnUse"><stop offset="0" stop-color="#6d2b11"></stop><stop offset=".125" stop-color="#813413"></stop><stop offset=".33" stop-color="#9b4115"></stop><stop offset=".541" stop-color="#ad4a17" stop-opacity=".6"></stop><stop offset=".76" stop-color="#b84f18" stop-opacity="0"></stop><stop offset="1" stop-color="#bc5118" stop-opacity="0"></stop></radialGradient><path d="M83.4 30.2c-2.1-2.6-5.8-3.4-8.7-1.7-2.5 1.4-3.2 4.6-1.5 6.9 0 0 37.6 45.4 42.9 62.3 1.7 5.4 4.2 16 4.2 16 .2 1.8 1.7 3.1 3.5 3.1l10.7-.4c2.4 0 4.3-2 4.1-4.4 0 0 .3-5.8-.1-17.6-.4-12.4 6.1-71.1 6.1-71.1.7-4.5-2.2-8.9-6.7-10-2.5-.6-5 1.2-5.2 3.8 0 0-1.1 40.7-6.1 49.5-2.6 4.5-9.1 5-12.6 1.1.1-.1-30.6-37.5-30.6-37.5z" fill="url(#boost-slingshot-30-n-uid-5)"></path><radialGradient id="boost-slingshot-30-o-uid-5" cx="114.561" cy="61.379" r="13.552" gradientUnits="userSpaceOnUse"><stop offset=".032" stop-color="#834a17"></stop><stop offset="1" stop-color="#502b11" stop-opacity="0"></stop></radialGradient><path d="M83.4 30.2c-2.1-2.6-5.8-3.4-8.7-1.7-2.5 1.4-3.2 4.6-1.5 6.9 0 0 37.6 45.4 42.9 62.3 1.7 5.4 4.2 16 4.2 16 .2 1.8 1.7 3.1 3.5 3.1l10.7-.4c2.4 0 4.3-2 4.1-4.4 0 0 .3-5.8-.1-17.6-.4-12.4 6.1-71.1 6.1-71.1.7-4.5-2.2-8.9-6.7-10-2.5-.6-5 1.2-5.2 3.8 0 0-1.1 40.7-6.1 49.5-2.6 4.5-9.1 5-12.6 1.1.1-.1-30.6-37.5-30.6-37.5z" fill="url(#boost-slingshot-30-o-uid-5)"></path><path d="M78.1 41.3l11.7-3.4c-1.4-1.8-2.5-2.7-3.5-4l-11 2.2c-.3.1-.4.4-.3.6l2 3.4c.3.3.6.7 1.1 1.2-.1 0-.1 0 0 0zm55.6-21.8c-.4 0-.8.3-.8.7l-.2 3.1-.1 1.3 11.8 1.6.3-2.9c.2-1.2.1-2.4-.2-3.5-.1 0-.2 0-.3-.1l-10.5-.2z" fill="#51200f"></path><linearGradient id="boost-slingshot-30-p-uid-5" gradientUnits="userSpaceOnUse" x1="132.345" y1="21.068" x2="145" y2="21.068"><stop offset=".286" stop-color="#14a800"></stop><stop offset=".85" stop-color="#126b00"></stop></linearGradient><path d="M132.6 24.1l12 .1c.6 0 .8-5.2-.7-6.4l-11.1.9c-.5.1-.6 5.4-.2 5.4z" fill="url(#boost-slingshot-30-p-uid-5)"></path><linearGradient id="boost-slingshot-30-q-uid-5" gradientUnits="userSpaceOnUse" x1="73.863" y1="36.56" x2="88.688" y2="36.56"><stop offset=".286" stop-color="#14a800"></stop><stop offset=".85" stop-color="#126b00"></stop></linearGradient><path d="M77.7 41l10.9-4.4c-.2-1.9-2.6-4.6-3.6-4.4l-11.2 4c-.2.1 3.8 4.8 3.9 4.8z" fill="url(#boost-slingshot-30-q-uid-5)"></path></svg>