<svg fill="none" xmlns="http://www.w3.org/2000/svg" viewBox="0 0 145 130" aria-hidden="true" role="img"><g clip-path="url(#clip0_11466_59150)"><path d="M81.617 115.672H1.51a1.51 1.51 0 00-1.51 1.51v.014c0 .834.676 1.51 1.51 1.51h80.107a1.51 1.51 0 001.51-1.51v-.014a1.51 1.51 0 00-1.51-1.51z" fill="url(#paint0_linear_11466_59150-uid-6)"></path><path d="M5.63 100.609h138.093a1.28 1.28 0 011.277 1.277 1.278 1.278 0 01-1.277 1.277H5.63a1.275 1.275 0 01-1.277-1.277 1.257 1.257 0 01.37-.907 1.253 1.253 0 01.907-.37z" fill="url(#paint1_linear_11466_59150-uid-6)"></path><path d="M129.168 34.096h.37l-.123-1.881a6.193 6.193 0 00-6.083-5.85 5.97 5.97 0 00-2.019.357c-.629.22-1.215.55-1.73.975a2.72 2.72 0 00-.425.37l-.385.413a6.302 6.302 0 00-1.524 3.735l-.137 1.88h-1.799l-4.641 69.068h22.958l-4.462-69.067z" fill="url(#paint2_linear_11466_59150-uid-6)"></path><path d="M129.539 34.096l-.124-1.881a6.178 6.178 0 00-6.083-5.85 5.96 5.96 0 00-2.018.357c-.63.22-1.215.55-1.73.975a2.773 2.773 0 00-.426.37l-.384.413a6.281 6.281 0 00-1.058 1.716 6.464 6.464 0 00-.466 2.019l-.138 1.88h12.427z" fill="url(#paint3_linear_11466_59150-uid-6)"></path><path d="M129.168 34.096h-5.836l-.934 69.053h11.232l-4.462-69.053z" fill="url(#paint4_linear_11466_59150-uid-6)"></path><path d="M122.398 103.149l.934-69.053h-8.019l-4.641 69.053h11.726z" fill="url(#paint5_linear_11466_59150-uid-6)"></path><path d="M116.426 32.213l-4.806 70.935H25.155l4.806-70.935" fill="url(#paint6_linear_11466_59150-uid-6)"></path><path d="M33.106 32.213l-.975 13.594a9.159 9.159 0 004.188 8.39l32.213 20.335a9.872 9.872 0 007.113 1.373l-.206 2.98h-8.98l-.289 4.435a1.126 1.126 0 001.002 1.236h7.25A1.372 1.372 0 0075.7 83.32l.302-4.435.206-3.076a11.533 11.533 0 003.048-1.222l35.701-20.83 1.455-21.49-83.306-.054z" fill="#51200F"></path><path d="M130.239 44.422l-.824-12.207a6.193 6.193 0 00-6.083-5.85H36.826a6.179 6.179 0 00-6.069 5.85l-.92 13.593a9.159 9.159 0 004.12 8.39L66.21 74.534a10.23 10.23 0 0010.683 0l35.7-20.817a9.306 9.306 0 002.486-2.142l-3.502 51.574h.81l.151-2.155 3.419-50.805a8.893 8.893 0 00.989-2.87 6.2 6.2 0 00.124-.879l.961-14.212v-.068c.018-.288.064-.573.137-.852 0-.137 0-.274.11-.412 0-.137.096-.26.151-.398a3.43 3.43 0 01.179-.398c.2-.388.444-.752.727-1.085.108-.125.222-.245.344-.357l.343-.302c.233-.185.481-.35.741-.494.223-.11.452-.206.687-.288l.371-.124.37-.096c.322-.054.649-.082.975-.082a5.358 5.358 0 015.273 5.053l4.641 68.531.165 2.348h.824l-3.831-58.782z" fill="#6D2B11"></path><path d="M36.044 26.365a6.18 6.18 0 00-6.083 5.85l-.92 13.593a9.186 9.186 0 004.12 8.39L65.4 74.534a10.216 10.216 0 0010.669 0l35.701-20.817a9.092 9.092 0 004.462-7.291l1.03-14.211a6.164 6.164 0 016.083-5.85H36.044z" fill="url(#paint7_linear_11466_59150-uid-6)"></path><path d="M76.262 70.69h-.522l-.288 4.119.33-.179v.412l.288-.137v-.385l.192-3.83z" fill="#51200F"></path><path d="M75.535 70.69h-9.53l-.549 8.142h9.53l.549-8.142z" fill="url(#paint8_linear_11466_59150-uid-6)"></path><path d="M73.915 84.517h-7.14a1.111 1.111 0 01-1.113-1.126v-.11l.302-4.449h9.612l-.302 4.449a1.373 1.373 0 01-1.36 1.236z" fill="#EB9546"></path><path d="M73.407 84.517h-7.14a1.128 1.128 0 01-1.181-1.126v-.11l.302-4.449h9.584l-.274 4.449a1.374 1.374 0 01-1.291 1.236z" fill="url(#paint9_linear_11466_59150-uid-6)"></path><path d="M75.493 78.832h-.508l.55-8.142h.521l-.563 8.142z" fill="#EB9546"></path><path d="M70.947 11.797h-2.334a4.834 4.834 0 00-4.765 4.916v9.612h4.765v-9.09h2.334a2.746 2.746 0 100-5.493v.055z" fill="url(#paint10_linear_11466_59150-uid-6)"></path><path d="M71.25 11a3.31 3.31 0 00-3.048 3.515 3.31 3.31 0 003.049 3.515h19.731a3.295 3.295 0 01-3.048-3.515A3.296 3.296 0 0190.982 11H71.251z" fill="url(#paint11_linear_11466_59150-uid-6)"></path><path d="M90.982 18.03c1.676 0 3.034-1.574 3.034-3.515S92.658 11 90.982 11c-1.676 0-3.035 1.574-3.035 3.515s1.359 3.515 3.035 3.515z" fill="#6D2B11"></path><path d="M93.316 11.797h-2.334a2.746 2.746 0 100 5.492h2.334v9.131h4.723v-9.61a4.831 4.831 0 00-4.723-5.012z" fill="url(#paint12_linear_11466_59150-uid-6)"></path><path d="M93.316 11.797h-2.334a2.746 2.746 0 100 5.492h2.334v-5.492z" fill="url(#paint13_radial_11466_59150-uid-6)"></path><path d="M89.622 14.516a2.554 2.554 0 012.335-2.746h-.975a2.746 2.746 0 000 5.492h.975a2.554 2.554 0 01-2.335-2.746z" fill="#EB9546"></path><path d="M15.996 118.693h32.31a5.025 5.025 0 004.942-4.613l4.97-70.51a4.243 4.243 0 00-3.885-4.586H21.571a5.039 5.039 0 00-4.944 4.587l-4.929 70.509a4.243 4.243 0 003.858 4.599l.44.014z" fill="url(#paint14_linear_11466_59150-uid-6)"></path><path d="M13.155 118.691h32.31a5.025 5.025 0 004.942-4.613l4.93-70.51a4.244 4.244 0 00-3.872-4.6H18.73a5.025 5.025 0 00-4.943 4.6l-4.93 70.51a4.226 4.226 0 002.275 4.144c.497.256 1.04.411 1.598.456l.425.013z" fill="#9AAA97"></path><path d="M9.295 107.818h41.55l4.298-61.556h-41.55l-4.298 61.556z" fill="#14A800"></path><path d="M29.178 43.447h10.78a.865.865 0 00.864-.81.755.755 0 00-.686-.825H29.302a.906.906 0 00-.879.824.742.742 0 00.687.81h.069zm2.79 71.914c1.385-1.338 1.496-3.471.248-4.764-1.249-1.293-3.384-1.256-4.77.082-1.385 1.338-1.496 3.471-.248 4.763 1.249 1.293 3.384 1.257 4.77-.081z" fill="#0D3A35"></path><path d="M41.18 79.053a5.492 5.492 0 01-4.573-2.746c.947-4.888 2.842-6.426 5.204-6.426a3.927 3.927 0 013.831 4.6 4.614 4.614 0 01-4.476 4.6l.014-.028zm.85-12.138a7.744 7.744 0 00-7.62 5.492 21.528 21.528 0 01-1.373-5.149h-5.85l-.549 7.237c-.178 2.622-1.51 4.558-3.844 4.558-2.335 0-3.543-1.936-3.35-4.558l.521-7.237h-3.31l-.494 7.237a7.47 7.47 0 001.552 5.396 6.15 6.15 0 004.902 2.128c4.12 0 7.085-3.09 7.387-7.538l.344-4.82a22.23 22.23 0 002.842 7.346l-2.43 10.23h3.405l1.689-7.25a8.18 8.18 0 001.18.865 7.126 7.126 0 003.708 1.167h.316a8.06 8.06 0 008.005-7.593 6.866 6.866 0 00-7.03-7.511z" fill="#fff"></path></g><defs><linearGradient id="paint0_linear_11466_59150-uid-6" x1="0" y1="117.182" x2="83.128" y2="117.182" gradientUnits="userSpaceOnUse"><stop stop-color="#C3D2C3" stop-opacity="0"></stop><stop offset=".01" stop-color="#C3D2C3" stop-opacity=".05"></stop><stop offset=".06" stop-color="#C3D2C3" stop-opacity=".3"></stop><stop offset=".12" stop-color="#C3D2C3" stop-opacity=".51"></stop><stop offset=".18" stop-color="#C3D2C3" stop-opacity=".69"></stop><stop offset=".23" stop-color="#C3D2C3" stop-opacity=".83"></stop><stop offset=".28" stop-color="#C3D2C3" stop-opacity=".92"></stop><stop offset=".34" stop-color="#C3D2C3" stop-opacity=".98"></stop><stop offset=".39" stop-color="#C3D2C3"></stop><stop offset=".44" stop-color="#C3D2C3"></stop><stop offset=".72" stop-color="#C3D2C3"></stop><stop offset=".78" stop-color="#C3D2C3" stop-opacity=".78"></stop><stop offset=".93" stop-color="#C3D2C3" stop-opacity=".23"></stop><stop offset="1" stop-color="#C3D2C3" stop-opacity=".01"></stop></linearGradient><linearGradient id="paint1_linear_11466_59150-uid-6" x1="4.353" y1="101.886" x2="145" y2="101.886" gradientUnits="userSpaceOnUse"><stop stop-color="#C3D2C3" stop-opacity="0"></stop><stop offset=".01" stop-color="#C3D2C3" stop-opacity=".05"></stop><stop offset=".04" stop-color="#C3D2C3" stop-opacity=".3"></stop><stop offset=".08" stop-color="#C3D2C3" stop-opacity=".51"></stop><stop offset=".11" stop-color="#C3D2C3" stop-opacity=".69"></stop><stop offset=".15" stop-color="#C3D2C3" stop-opacity=".83"></stop><stop offset=".19" stop-color="#C3D2C3" stop-opacity=".92"></stop><stop offset=".22" stop-color="#C3D2C3" stop-opacity=".98"></stop><stop offset=".26" stop-color="#C3D2C3"></stop><stop offset=".34" stop-color="#C3D2C3"></stop><stop offset=".82" stop-color="#C3D2C3"></stop><stop offset=".86" stop-color="#C3D2C3" stop-opacity=".78"></stop><stop offset=".96" stop-color="#C3D2C3" stop-opacity=".23"></stop><stop offset="1" stop-color="#C3D2C3" stop-opacity=".01"></stop></linearGradient><linearGradient id="paint2_linear_11466_59150-uid-6" x1="110.672" y1="64.757" x2="133.63" y2="64.757" gradientUnits="userSpaceOnUse"><stop stop-color="#6D2B11"></stop><stop offset=".33" stop-color="#622710"></stop><stop offset="1" stop-color="#51200F"></stop></linearGradient><linearGradient id="paint3_linear_11466_59150-uid-6" x1="117.112" y1="30.237" x2="129.539" y2="30.237" gradientUnits="userSpaceOnUse"><stop stop-color="#6D2B11"></stop><stop offset=".18" stop-color="#652810"></stop><stop offset=".63" stop-color="#56220F"></stop><stop offset="1" stop-color="#51200F"></stop></linearGradient><linearGradient id="paint4_linear_11466_59150-uid-6" x1="1389.63" y1="-4302.43" x2="1481.51" y2="-4302.43" gradientUnits="userSpaceOnUse"><stop stop-color="#6D2B11"></stop><stop offset=".33" stop-color="#622710"></stop><stop offset="1" stop-color="#51200F"></stop></linearGradient><linearGradient id="paint5_linear_11466_59150-uid-6" x1="1432.21" y1="-4302.43" x2="1548.94" y2="-4302.43" gradientUnits="userSpaceOnUse"><stop stop-color="#6D2B11"></stop><stop offset=".33" stop-color="#622710"></stop><stop offset="1" stop-color="#51200F"></stop></linearGradient><linearGradient id="paint6_linear_11466_59150-uid-6" x1="70.784" y1="103.161" x2="70.784" y2="32.213" gradientUnits="userSpaceOnUse"><stop stop-color="#6D2B11"></stop><stop offset="1" stop-color="#BC5118"></stop></linearGradient><linearGradient id="paint7_linear_11466_59150-uid-6" x1="76.18" y1="76.031" x2="76.18" y2="26.365" gradientUnits="userSpaceOnUse"><stop stop-color="#6D2B11"></stop><stop offset=".21" stop-color="#722D11"></stop><stop offset=".45" stop-color="#803413"></stop><stop offset=".7" stop-color="#973F15"></stop><stop offset=".97" stop-color="#B84F18"></stop><stop offset="1" stop-color="#BC5118"></stop></linearGradient><linearGradient id="paint8_linear_11466_59150-uid-6" x1="65.937" y1="79.326" x2="75.054" y2="70.209" gradientUnits="userSpaceOnUse"><stop offset=".01" stop-color="#FCCD81"></stop><stop offset=".89" stop-color="#EB9546"></stop></linearGradient><linearGradient id="paint9_linear_11466_59150-uid-6" x1="785.802" y1="-239.54" x2="812.39" y2="-285.77" gradientUnits="userSpaceOnUse"><stop offset=".01" stop-color="#FCCD81"></stop><stop offset=".89" stop-color="#EB9546"></stop></linearGradient><linearGradient id="paint10_linear_11466_59150-uid-6" x1="63.848" y1="19.088" x2="73.295" y2="19.088" gradientUnits="userSpaceOnUse"><stop offset=".05" stop-color="#FCCD81"></stop><stop offset=".54" stop-color="#EB9546"></stop></linearGradient><linearGradient id="paint11_linear_11466_59150-uid-6" x1="79.599" y1="18.03" x2="79.599" y2="11" gradientUnits="userSpaceOnUse"><stop stop-color="#6D2B11"></stop><stop offset=".15" stop-color="#722D11"></stop><stop offset=".32" stop-color="#803413"></stop><stop offset=".5" stop-color="#973F15"></stop><stop offset=".69" stop-color="#B84F18"></stop><stop offset="1" stop-color="#BC5118"></stop></linearGradient><linearGradient id="paint12_linear_11466_59150-uid-6" x1="88.634" y1="19.088" x2="98.067" y2="19.088" gradientUnits="userSpaceOnUse"><stop offset=".52" stop-color="#FCCD81"></stop><stop offset=".89" stop-color="#EB9546"></stop></linearGradient><linearGradient id="paint14_linear_11466_59150-uid-6" x1="34.945" y1="118.693" x2="34.945" y2="38.984" gradientUnits="userSpaceOnUse"><stop offset=".25" stop-color="#65735B"></stop><stop offset=".55" stop-color="#9AAA97"></stop><stop offset=".7" stop-color="#98A894"></stop><stop offset=".8" stop-color="#909F8B"></stop><stop offset=".89" stop-color="#82927C"></stop><stop offset=".97" stop-color="#707E67"></stop><stop offset="1" stop-color="#65735B"></stop></linearGradient><radialGradient id="paint13_radial_11466_59150-uid-6" cx="0" cy="0" r="1" gradientUnits="userSpaceOnUse" gradientTransform="translate(95.17 17.619) scale(5.36884)"><stop offset=".52" stop-color="#EB9546"></stop><stop offset=".89" stop-color="#EB9546" stop-opacity="0"></stop></radialGradient><clipPath id="clip0_11466_59150-uid-6"><rect width="145" height="130" fill="#fff"></rect></clipPath></defs></svg>