<svg xmlns="http://www.w3.org/2000/svg" viewBox="0 0 145 130" aria-hidden="true" role="img"><polygon points="59.5,130 47,118.6 31.3,117.4 54.4,66 82.6,78.6" fill="#13544e"></polygon><linearGradient id="verified-282-a-uid-4" gradientUnits="userSpaceOnUse" x1="60.069" y1="39.13" x2="43.16" y2=".666" gradientTransform="matrix(1 0 0 -1 .006 129.994)"><stop offset=".02" stop-color="#126b00"></stop><stop offset=".26" stop-color="#138600"></stop><stop offset=".5" stop-color="#139900"></stop><stop offset=".74" stop-color="#14a400"></stop><stop offset="1" stop-color="#14a800"></stop></linearGradient><polygon points="47,118.6 55.9,126.7 78.3,76.7 58.6,67.9 36.3,117.8" fill="url(#verified-282-a-uid-4)"></polygon><polygon points="74.3,74.9 71,73.4 60.7,76.3 67.6,100.5 78.3,76.7" fill="#126b00"></polygon><polygon points="74.3,74.9 71,73.4 71,73.4" fill="#092622"></polygon><polygon points="78.3,76.7 67.6,100.5 69.6,107.5 82.6,78.6" fill="#0d3a35"></polygon><polygon points="85.9,130 98.4,118.6 114.1,117.4 91,66 62.8,78.6" fill="#13544e"></polygon><linearGradient id="verified-282-b-uid-4" gradientUnits="userSpaceOnUse" x1="84.479" y1="40.691" x2="101.995" y2="2.5" gradientTransform="matrix(1 0 0 -1 .006 129.994)"><stop offset=".02" stop-color="#126b00"></stop><stop offset=".26" stop-color="#138600"></stop><stop offset=".5" stop-color="#139900"></stop><stop offset=".74" stop-color="#14a400"></stop><stop offset="1" stop-color="#14a800"></stop></linearGradient><polygon points="98.4,118.6 89.5,126.7 67.1,76.7 86.8,67.9 109.1,117.8" fill="url(#verified-282-b-uid-4)"></polygon><linearGradient id="verified-282-c-uid-4" gradientUnits="userSpaceOnUse" x1="45.539" y1="59.355" x2="104.062" y2="117.879" gradientTransform="matrix(1 0 0 -1 0 130)"><stop offset=".02" stop-color="#fccd81"></stop><stop offset=".39" stop-color="#fbcb7f"></stop><stop offset=".6" stop-color="#f9c377"></stop><stop offset=".77" stop-color="#f5b669"></stop><stop offset=".92" stop-color="#efa355"></stop><stop offset="1" stop-color="#eb9546"></stop></linearGradient><circle cx="74.8" cy="41.4" r="41.4" fill="url(#verified-282-c-uid-4)"></circle><linearGradient id="verified-282-d-uid-4" gradientUnits="userSpaceOnUse" x1="51.807" y1="47.226" x2="51.807" y2="129.994" gradientTransform="matrix(1 0 0 -1 .006 129.994)"><stop offset=".02" stop-color="#eb9546"></stop><stop offset=".34" stop-color="#f2ac5e"></stop><stop offset=".75" stop-color="#f9c478"></stop><stop offset="1" stop-color="#fccd81"></stop></linearGradient><path d="M33.4 41.4C33.4 18.6 52 0 74.8 0h-4.6C47.4 0 28.8 18.6 28.8 41.4s18.6 41.4 41.4 41.4h4.6c-22.8 0-41.4-18.6-41.4-41.4z" fill="url(#verified-282-d-uid-4)"></path><path d="M99.4 25.4c-.2-.1-.3-.3-.5-.4v-1.8l-3.7 1.2c-.8.2-1.5.7-2 1.3l-25 27.9c-.2.3-.5.4-.7.4-.2 0-.5-.1-.7-.3L53.1 38.6c-.3-.3-.6-.6-1-.8v-1.6l-3.3 1.1c-.7.2-1.4.5-1.9 1-1.8 1.7-2 4.5-.3 6.3l13.7 15.1c1.9 2.1 4.5 3.2 7.3 3.2 1.2 0 2.3-.2 3.4-.6l2.7-.9v-.6c.4-.3.8-.7 1.2-1.1l25-28c1.5-1.9 1.3-4.7-.5-6.3z" fill="#ce7e3c"></path><path d="M70.8 61.8c-2.8 0-5.4-1.2-7.3-3.2L49.9 43.4c-1.7-1.8-1.6-4.6.2-6.3 1.8-1.7 4.6-1.6 6.3.2l.1.1 13.7 15.1c.2.2.4.3.7.3.3 0 .5-.1.7-.3l25-28c1.6-1.8 4.5-2 6.3-.3 1.8 1.6 2 4.5.3 6.3l-25 28c-1.9 2.1-4.6 3.2-7.4 3.3z" fill="#eb9546"></path></svg>