<svg xmlns="http://www.w3.org/2000/svg" aria-hidden="true" viewBox="0 0 14 14" role="img"><path d="M12.6 7.181V1.4c0-.771-.63-1.4-1.4-1.4H1.399C.63 0 0 .629 0 1.4v7c0 .771.63 1.4 1.399 1.4h4.918A3.85 3.85 0 1012.6 7.181zM11.2 1.4v1.401H1.399V1.4H11.2zm-4.477 7H1.399V4.901H11.2v1.548a3.84 3.84 0 00-1.051-.149 3.845 3.845 0 00-3.426 2.1zm5.527 2.917l-.934.933-1.167-1.166-1.167 1.166-.932-.933 1.166-1.167L8.05 8.983l.932-.933 1.167 1.168 1.167-1.168.934.934-1.168 1.167 1.168 1.166z" fill='red'></path></svg>