<svg xmlns="http://www.w3.org/2000/svg" viewBox="0 0 341.24 100" class="login-mobile-logo-2-75" data-v-bce12d0c=""><path d="M93.534 68.271a22.091 22.091 0 0 1-17.497-10.336C78.3 39.898 84.887 34.29 93.6 34.29c8.715 0 15.336 6.756 15.336 16.89 0 10.133-6.756 16.889-15.336 16.889m0-45.06a26.246 26.246 0 0 0-26.684 20.537 87.824 87.824 0 0 1-6.52-18.984H38.881v26.685c0 9.694-4.392 16.89-13.005 16.89s-13.511-7.162-13.511-16.89V24.562H.002v26.685a29.083 29.083 0 0 0 7.127 20.2 24.557 24.557 0 0 0 18.713 7.937c14.896 0 25.334-11.45 25.334-27.833V33.513a87.384 87.384 0 0 0 12.363 27.192l-6.62 37.764h12.565l4.357-26.752a37.156 37.156 0 0 0 4.594 3.378 28.104 28.104 0 0 0 13.984 4.323h1.149a27.36 27.36 0 0 0 27.63-28.239 27.428 27.428 0 0 0-27.664-28.07m177.741 7.33v-5.674h-12.16V77.56h12.33V56.888c0-12.734 1.148-21.888 18.24-20.706V24.157c-7.972-.608-14.188 1.047-18.41 6.316m-85.425-5.742-8.918 36.954-9.525-36.954h-15.673l-9.526 36.954-8.917-36.954h-12.464l13.68 52.863h14.795l10.268-37.528 10.168 37.528h14.795l14.457-52.863zm40.23 43.574c-8.749 0-15.302-6.924-15.302-16.89 0-9.964 6.756-16.888 15.302-16.888s15.47 6.519 15.47 16.652c0 10.134-6.755 16.89-15.335 16.89m0-45.094a27.36 27.36 0 0 0-27.732 28.204 27.63 27.63 0 1 0 55.228 0 27.394 27.394 0 0 0-27.631-28.07m81.237 28.51h2.837l17.193 25.975h13.883l-19.76-28.813a25.874 25.874 0 0 0 16.01-24.016h-12.26c0 11.383-8.986 15.707-17.903 15.707V3.89h-12.33v73.704h12.296z" style="fill: #14a800" data-v-bce12d0c=""></path></svg>