<svg xmlns="http://www.w3.org/2000/svg" viewBox="0 0 145 130" aria-hidden="true" role="img"><linearGradient id="search-jobs-296-a-uid-31" gradientUnits="userSpaceOnUse" x1="0" y1="52.094" x2="130.315" y2="52.094" gradientTransform="matrix(1 0 0 -1 0 132)"><stop offset="0" stop-color="#c3d2c3" stop-opacity="0"></stop><stop offset=".01" stop-color="#c3d2c3" stop-opacity=".05"></stop><stop offset=".04" stop-color="#c3d2c3" stop-opacity=".3"></stop><stop offset=".08" stop-color="#c3d2c3" stop-opacity=".51"></stop><stop offset=".11" stop-color="#c3d2c3" stop-opacity=".69"></stop><stop offset=".15" stop-color="#c3d2c3" stop-opacity=".83"></stop><stop offset=".19" stop-color="#c3d2c3" stop-opacity=".92"></stop><stop offset=".22" stop-color="#c3d2c3" stop-opacity=".98"></stop><stop offset=".26" stop-color="#c3d2c3"></stop><stop offset=".34" stop-color="#c3d2c3"></stop><stop offset=".82" stop-color="#c3d2c3"></stop><stop offset=".86" stop-color="#c3d2c3" stop-opacity=".78"></stop><stop offset=".96" stop-color="#c3d2c3" stop-opacity=".23"></stop><stop offset="1" stop-color="#c3d2c3" stop-opacity=".01"></stop></linearGradient><path d="M129.2 78.8H1.1c-.6 0-1.1.5-1.1 1.1 0 .6.5 1.1 1.1 1.1h128.1c.6 0 1.1-.5 1.1-1.1 0-.6-.5-1.1-1.1-1.1z" fill="url(#search-jobs-296-a-uid-31)"></path><linearGradient id="search-jobs-296-b-uid-31" gradientUnits="userSpaceOnUse" x1="97.522" y1="113.673" x2="108.269" y2="113.673" gradientTransform="matrix(1 0 0 -1 0 132)"><stop offset="0" stop-color="#6d2b11"></stop><stop offset=".18" stop-color="#652810"></stop><stop offset=".63" stop-color="#56220f"></stop><stop offset="1" stop-color="#51200f"></stop></linearGradient><path d="M108.3 21.3l-.1-1.6c-.1-1.3-.7-2.6-1.6-3.5-1-.9-2.3-1.5-3.6-1.5-.9 0-1.7.2-2.5.6-.3.1-.6.3-.8.5-.1.1-.3.2-.4.3-.1.1-.2.2-.3.4-.8.9-1.2 2-1.3 3.2l-.1 1.6 5.4.7 5.3-.7z" fill="url(#search-jobs-296-b-uid-31)"></path><linearGradient id="search-jobs-296-c-uid-31" gradientUnits="userSpaceOnUse" x1="102.091" y1="80.867" x2="111.818" y2="80.867" gradientTransform="matrix(1 0 0 -1 0 132)"><stop offset="0" stop-color="#6d2b11"></stop><stop offset=".33" stop-color="#622710"></stop><stop offset="1" stop-color="#51200f"></stop></linearGradient><path d="M108 21.3h-5.2l-.7 59.7h9.7L108 21.3z" fill="url(#search-jobs-296-c-uid-31)"></path><linearGradient id="search-jobs-296-d-uid-31" gradientUnits="userSpaceOnUse" x1="1124.148" y1="80.867" x2="1221.767" y2="80.867" gradientTransform="matrix(1 0 0 -1 0 132)"><stop offset="0" stop-color="#6d2b11"></stop><stop offset=".33" stop-color="#622710"></stop><stop offset="1" stop-color="#51200f"></stop></linearGradient><path d="M102.1 81l.8-59.7H96L92 81h10.1z" fill="url(#search-jobs-296-d-uid-31)"></path><linearGradient id="search-jobs-296-e-uid-31" gradientUnits="userSpaceOnUse" x1="57.463" y1="51.002" x2="57.463" y2="112.352" gradientTransform="matrix(1 0 0 -1 0 132)"><stop offset="0" stop-color="#6d2b11"></stop><stop offset="1" stop-color="#bc5118"></stop></linearGradient><path d="M96.9 19.6L92.8 81H18l4.2-61.4" fill="url(#search-jobs-296-e-uid-31)"></path><path d="M24.9 19.6l-.8 11.8c-.1 1.4.2 2.9.8 4.1.6 1.3 1.6 2.4 2.8 3.1l27.8 17.6c1.8 1.1 4 1.6 6.1 1.2l-.1 2.6h-7.8l-.3 3.8c0 .3.1.5.2.7.2.2.4.3.7.3h6.3c.3 0 .6-.1.8-.3.2-.2.3-.5.4-.7l.3-3.8.2-2.6c.9-.2 1.8-.6 2.6-1.1l31-18 1.2-18.6H24.9z" fill="#51200f"></path><path d="M108.9 30.2l-.7-10.6c-.1-1.3-.7-2.6-1.7-3.5-1-.9-2.3-1.5-3.6-1.5H28.1c-1.4 0-2.7.6-3.6 1.5-1 .9-1.6 2.2-1.6 3.6l-.8 11.8c-.1 1.4.2 2.9.8 4.1.6 1.3 1.6 2.4 2.8 3.1l27.7 17.5c1.4.8 3 1.3 4.6 1.3 1.6 0 3.2-.4 4.6-1.3l30.9-18c.8-.5 1.6-1.1 2.1-1.9l-3 44.6h.7l.1-1.9 2.9-43.9c.4-.8.7-1.6.8-2.5.1-.2.1-.5.1-.7l.8-12.3c0-.2.1-.5.1-.7 0-.1.1-.2.1-.4 0-.1.1-.2.1-.3 0-.1.1-.2.1-.3l.6-.9.3-.3.3-.3c.2-.2.4-.3.7-.4l.6-.3.3-.1.3-.1c.3 0 .6-.1.8-.1 1.2 0 2.3.5 3.1 1.3.8.8 1.4 1.9 1.4 3.1l4 59.3.1 2h.7l-2.7-50.9z" fill="#6d2b11"></path><linearGradient id="search-jobs-296-f-uid-31" gradientUnits="userSpaceOnUse" x1="62.114" y1="74.452" x2="62.114" y2="117.415" gradientTransform="matrix(1 0 0 -1 0 132)"><stop offset="0" stop-color="#6d2b11"></stop><stop offset=".21" stop-color="#722d11"></stop><stop offset=".45" stop-color="#803413"></stop><stop offset=".7" stop-color="#973f15"></stop><stop offset=".97" stop-color="#b84f18"></stop><stop offset="1" stop-color="#bc5118"></stop></linearGradient><path d="M27.4 14.6c-1.4 0-2.7.6-3.6 1.5-1 .9-1.6 2.2-1.6 3.6l-.8 11.8c-.1 1.4.2 2.9.8 4.1.6 1.3 1.6 2.4 2.8 3.1l27.8 17.5c1.4.9 3 1.3 4.6 1.3 1.6 0 3.2-.4 4.6-1.3l30.9-18c1.1-.7 2-1.6 2.7-2.7.7-1.1 1.1-2.3 1.1-3.6l.8-12.3c.1-1.3.7-2.6 1.6-3.5 1-.9 2.3-1.5 3.6-1.5H27.4z" fill="url(#search-jobs-296-f-uid-31)"></path><path d="M62.2 52.9h-.5l-.2 3.6c.1 0 .2-.1.3-.1v.4l.3-.1v-.3l.1-3.5z" fill="#51200f"></path><linearGradient id="search-jobs-296-g-uid-31" gradientUnits="userSpaceOnUse" x1="53.269" y1="71.613" x2="61.148" y2="79.504" gradientTransform="matrix(1 0 0 -1 0 132)"><stop offset=".08" stop-color="#fccd81"></stop><stop offset=".89" stop-color="#eb9546"></stop></linearGradient><path d="M61.6 52.9h-8.3l-.4 7.1h8.2l.5-7.1z" fill="url(#search-jobs-296-g-uid-31)"></path><path d="M60.2 64.9H54c-.3 0-.5-.1-.7-.3-.2-.2-.3-.4-.3-.7v-.1l.3-3.8h8.3l-.3 3.8c0 .3-.1.6-.3.8-.3.1-.5.3-.8.3z" fill="#eb9546"></path><linearGradient id="search-jobs-296-h-uid-31" gradientUnits="userSpaceOnUse" x1="311.995" y1="509.427" x2="334.408" y2="548.03" gradientTransform="matrix(1 0 0 -1 0 132)"><stop offset=".08" stop-color="#fccd81"></stop><stop offset=".89" stop-color="#eb9546"></stop></linearGradient><path d="M59.7 64.9h-6.1c-.3 0-.5-.1-.7-.3-.2-.2-.3-.4-.3-.7v-.1l.3-3.8h8.2l-.2 3.8c0 .3-.1.6-.4.8-.2.2-.5.3-.8.3z" fill="url(#search-jobs-296-h-uid-31)"></path><path d="M61.5 60h-.4l.5-7.1h.4l-.5 7.1z" fill="#eb9546"></path><linearGradient id="search-jobs-296-i-uid-31" gradientUnits="userSpaceOnUse" x1="51.463" y1="123.681" x2="59.63" y2="123.681" gradientTransform="matrix(1 0 0 -1 0 132)"><stop offset=".05" stop-color="#fccd81"></stop><stop offset=".54" stop-color="#eb9546"></stop></linearGradient><path d="M57.6 2h-2c-1.1 0-2.2.5-2.9 1.3-.8.8-1.2 1.9-1.2 3v8.4h4.1v-8h2c.6-.1 1.1-.4 1.5-.8.4-.4.6-1 .6-1.6 0-.6-.2-1.1-.6-1.6-.4-.3-.9-.6-1.5-.7z" fill="url(#search-jobs-296-i-uid-31)"></path><linearGradient id="search-jobs-296-j-uid-31" gradientUnits="userSpaceOnUse" x1="65.073" y1="124.622" x2="65.073" y2="130.702" gradientTransform="matrix(1 0 0 -1 0 132)"><stop offset="0" stop-color="#6d2b11"></stop><stop offset=".15" stop-color="#722d11"></stop><stop offset=".32" stop-color="#803413"></stop><stop offset=".5" stop-color="#973f15"></stop><stop offset=".69" stop-color="#b84f18"></stop><stop offset="1" stop-color="#bc5118"></stop></linearGradient><path d="M57.9 1.3c-.4 0-.7.1-1.1.3-.3.2-.6.4-.9.7-.2.3-.4.6-.5 1-.1.4-.2.7-.1 1.1-.1.8.2 1.5.7 2.1.5.6 1.2.9 1.9 1H75c-.8-.1-1.4-.4-1.9-1s-.7-1.3-.7-2.1c-.1-.8.2-1.5.7-2.1.5-.6 1.2-.9 1.9-1H57.9z" fill="url(#search-jobs-296-j-uid-31)"></path><path d="M74.9 7.4c1.5 0 2.6-1.4 2.6-3 0-1.7-1.2-3-2.6-3-1.5 0-2.6 1.4-2.6 3s1.2 3 2.6 3z" fill="#6d2b11"></path><linearGradient id="search-jobs-296-k-uid-31" gradientUnits="userSpaceOnUse" x1="72.891" y1="123.681" x2="81.064" y2="123.681" gradientTransform="matrix(1 0 0 -1 0 132)"><stop offset=".52" stop-color="#fccd81"></stop><stop offset=".89" stop-color="#eb9546"></stop></linearGradient><path d="M76.9 2h-2c-.6.1-1.1.4-1.5.8-.4.4-.6 1-.6 1.6 0 .6.2 1.1.6 1.6.4.4.9.7 1.5.8h2v8H81V6.3c0-.6-.1-1.1-.3-1.6s-.5-1-.9-1.4c-.4-.4-.8-.7-1.4-.9-.4-.3-.9-.4-1.5-.4z" fill="url(#search-jobs-296-k-uid-31)"></path><radialGradient id="search-jobs-296-l-uid-31" cx="-695.556" cy="503.843" r="1" gradientTransform="matrix(4.6427 0 0 -4.6427 3307.808 2346.207)" gradientUnits="userSpaceOnUse"><stop offset=".52" stop-color="#eb9546"></stop><stop offset=".89" stop-color="#eb9546" stop-opacity="0"></stop></radialGradient><path d="M76.9 2h-2c-.6.1-1.1.4-1.5.8-.4.4-.6 1-.6 1.6 0 .6.2 1.1.6 1.6.4.4.9.7 1.5.8h2V2z" fill="url(#search-jobs-296-l-uid-31)"></path><path d="M73.8 4.3c0-.3 0-.6.1-.8.1-.3.2-.5.4-.7.2-.2.4-.4.7-.5.2-.2.5-.3.8-.3H75c-.6.1-1.1.4-1.5.8-.4.4-.6 1-.6 1.6 0 .6.2 1.1.6 1.6.4.4.9.7 1.5.8h.8c-.3 0-.6-.1-.8-.2-.3-.1-.5-.3-.7-.5-.2-.2-.3-.5-.4-.7-.1-.5-.2-.8-.1-1.1z" fill="#eb9546"></path><linearGradient id="search-jobs-296-m-uid-31" gradientUnits="userSpaceOnUse" x1="65.612" y1="60.63" x2="109.362" y2="60.63" gradientTransform="matrix(1 0 0 -1 0 132)"><stop offset="0" stop-color="#fff"></stop><stop offset=".64" stop-color="#fdfefd"></stop><stop offset=".92" stop-color="#f6f9f6"></stop><stop offset="1" stop-color="#f2f7f2"></stop></linearGradient><path d="M87.5 93.2c12.1 0 21.9-9.8 21.9-21.9s-9.8-21.9-21.9-21.9-21.9 9.8-21.9 21.9 9.8 21.9 21.9 21.9z" fill="url(#search-jobs-296-m-uid-31)"></path><radialGradient id="search-jobs-296-n-uid-31" cx="-863.111" cy="593.309" r="1" gradientTransform="matrix(37.9025 0 0 -37.3724 32793.266 22239.303)" gradientUnits="userSpaceOnUse"><stop offset="0" stop-color="#01cdbe" stop-opacity="0"></stop><stop offset="1" stop-color="#01cdbe"></stop></radialGradient><path d="M87.3 93.1c12.1 0 21.9-9.7 21.9-21.6 0-11.9-9.8-21.6-21.9-21.6-12.1 0-21.9 9.7-21.9 21.6.1 11.9 9.9 21.6 21.9 21.6z" opacity=".3" fill="url(#search-jobs-296-n-uid-31)"></path><path d="M87.3 49.8c-2.9 0-5.7.5-8.3 1.6-2.6 1.1-5 2.7-7.1 4.7-2 2-3.6 4.4-4.8 7-1.1 2.6-1.7 5.5-1.7 8.3 0 3.3.7 6.5 2.2 9.4 1.4 2.9 3.5 5.5 6.1 7.5-3-3.8-4.6-8.5-4.6-13.3.1-4.1 1.2-8.1 3.5-11.5 2.2-3.4 5.3-6.2 9-8 3.7-1.8 7.8-2.5 11.9-2 4.1.5 7.9 2 11.1 4.6-2.1-2.6-4.7-4.7-7.7-6.2-3-1.4-6.2-2.1-9.6-2.1zm-13.9 7.7a21.5 21.5 0 00-6.3 14.8c-.1 5.5 1.9 10.9 5.7 15l-.7-.6c-3.9-4.1-6.1-9.5-6.1-15.1s2.3-11.1 6.3-15c4-4 9.4-6.3 15-6.3s11.1 2.1 15.1 6.1l.6.7c-4.1-3.8-9.5-5.8-15-5.7-5.4-.1-10.7 2.2-14.6 6.1z" opacity=".3" fill="#01cdbe"></path><path d="M107.4 56.7l-2.7-2.7c-2.3-2.4-5-4.3-8-5.6-3-1.3-6.2-2-9.5-2.1-3.3 0-6.5.6-9.6 1.8-3 1.2-5.8 3.1-8.1 5.4-2.3 2.3-4.2 5.1-5.4 8.1-1.2 3-1.9 6.3-1.8 9.6 0 3.3.7 6.5 2.1 9.5 1.3 3 3.2 5.7 5.6 8l2.7 2.7c4.6 4.5 10.8 7 17.3 6.9 6.4-.1 12.6-2.6 17.2-7.2s7.1-10.7 7.2-17.2-2.6-12.6-7-17.2zm-8.2-3.2c-.4-.3-.8-.5-1.2-.8.4.3.8.5 1.2.8zm-30.4 7c-.1.2-.3.4-.4.7.2-.2.3-.5.4-.7zm-.3 21.3c.2.4.4.7.6 1.1-.2-.4-.4-.7-.6-1.1zm34 4.8a21.5 21.5 0 01-14.8 6.3c-5.5.1-10.9-1.9-15-5.7-2.8-3-4.7-6.8-5.4-10.9-.7-4.1-.2-8.3 1.4-12.1 1.6-3.8 4.3-7.1 7.8-9.4 3.4-2.3 7.5-3.6 11.6-3.7h2c4.8.4 9.4 2.3 13 5.6 3.8 4.1 5.8 9.5 5.7 15 0 5.7-2.3 11-6.3 14.9z" fill="#14a800"></path><linearGradient id="search-jobs-296-o-uid-31" gradientUnits="userSpaceOnUse" x1="69.972" y1="55.783" x2="114.557" y2="55.783" gradientTransform="matrix(1 0 0 -1 0 132)"><stop offset=".45" stop-color="#14a800"></stop><stop offset=".61" stop-color="#14a500"></stop><stop offset=".72" stop-color="#149d00"></stop><stop offset=".81" stop-color="#138e00"></stop><stop offset=".89" stop-color="#127900"></stop><stop offset=".93" stop-color="#126b00"></stop></linearGradient><path d="M70 88.8c4.6 4.4 10.8 6.8 17.2 6.8 6.4-.1 12.5-2.7 17.1-7.2 4.5-4.5 7.1-10.6 7.2-17.1s-2.3-12.6-6.8-17.2l2.7 2.7c4.5 4.6 7 10.8 6.9 17.3-.1 6.4-2.6 12.6-7.2 17.2s-10.7 7.1-17.2 7.2c-6.4.1-12.6-2.4-17.3-6.9L70 88.8z" fill="url(#search-jobs-296-o-uid-31)"></path><radialGradient id="search-jobs-296-p-uid-31" cx="-869.392" cy="471.634" r="1" gradientTransform="matrix(12.3059 -12.184 -5.0308 -5.0811 13183.514 -8101.962)" gradientUnits="userSpaceOnUse"><stop offset="0" stop-color="#ad8d05"></stop><stop offset=".26" stop-color="#af8e08"></stop><stop offset=".43" stop-color="#b49311"></stop><stop offset=".58" stop-color="#be9b20"></stop><stop offset=".7" stop-color="#caa533"></stop><stop offset=".77" stop-color="#d1ab3f"></stop><stop offset=".89" stop-color="#e5bb5d"></stop><stop offset="1" stop-color="#fccd81"></stop></radialGradient><path d="M112.1 91.2l-5 4.9c-.6.5-1.3.9-2.1.9s-1.5-.3-2.1-.9l-.2-.2c-.3-.3-.5-.6-.6-.9-.1-.4-.2-.7-.2-1.1 0-.4.1-.8.2-1.1.1-.4.4-.7.6-.9l5-4.9c.6-.5 1.3-.9 2.1-.9s1.5.3 2.1.9l.2.2c.5.5.8 1.3.8 2.1.1.6-.2 1.4-.8 1.9z" fill="url(#search-jobs-296-p-uid-31)"></path><linearGradient id="search-jobs-296-q-uid-31" gradientUnits="userSpaceOnUse" x1="121.034" y1="17.885" x2="130.328" y2="27.178" gradientTransform="matrix(1 0 0 -1 0 132)"><stop offset="0" stop-color="#bc5118"></stop><stop offset=".24" stop-color="#b84f18"></stop><stop offset=".46" stop-color="#ad4a17"></stop><stop offset=".67" stop-color="#9b4115"></stop><stop offset=".88" stop-color="#813413"></stop><stop offset="1" stop-color="#6d2b11"></stop></linearGradient><path d="M110.4 90.4c-1.7 1-3.1 2.4-4.1 4.1-.1.2-.1.4-.1.6 0 .2.1.4.2.5l20.1 23.8c2.5 3 5.4 5.7 8.5 8.1 1.2.9 2.7 1.4 4.2 1.3 1.5-.1 2.9-.7 4-1.8s1.7-2.5 1.8-4c.1-1.5-.4-3-1.3-4.2-2.4-3.1-5.2-5.9-8.2-8.4l-24.1-19.9c-.2-.1-.3-.2-.5-.2-.2-.1-.4 0-.5.1z" fill="url(#search-jobs-296-q-uid-31)"></path><path d="M111.5 90.5c-.2-.1-.3-.2-.5-.2s-.4 0-.6.1c-1.7 1-3.1 2.4-4.1 4.1-.1.2-.1.4-.1.6 0 .2.1.4.2.5l2.3 2.7c-.7-.9 1.8-8.6 4.3-6.4l-1.5-1.4z" fill="#6d2b11"></path><linearGradient id="search-jobs-296-r-uid-31" gradientUnits="userSpaceOnUse" x1="64.848" y1="54.035" x2="98.072" y2="81.289" gradientTransform="matrix(1 0 0 -1 0 132)"><stop offset="0" stop-color="#126b00"></stop><stop offset="1" stop-color="#14a800"></stop></linearGradient><path d="M102.5 56.2l-.4-.4c-.4-.3-.7-.7-1.1-1l-.2-.1c-1-.8-2.1-1.6-3.3-2.2l-.4-.2c-1.5-.8-3-1.3-4.7-1.7l-.4-.1-1.1-.2-1-.1-1-.1h-3l-1 .1-.5.1c-2.3.3-4.6 1-6.7 2.1l-.4.2c-1.2.6-2.2 1.4-3.3 2.2l-.2.1c-.5.4-1.1.9-1.6 1.4-2.7 2.7-4.6 6-5.6 9.6-.1.3-.2.7-.2 1-.7 3-.7 6.2 0 9.2.1.3.2.7.2 1 .1.5.3 1.1.5 1.6 1.1 3 2.8 5.7 5 8l.7.6c-2.8-3-4.7-6.8-5.4-10.9-.7-4.1-.2-8.3 1.4-12.1 1.6-3.8 4.3-7.1 7.8-9.4 3.4-2.3 7.5-3.6 11.6-3.7h2c4.8.4 9.4 2.3 13 5.6-.2-.1-.4-.4-.7-.6z" fill="url(#search-jobs-296-r-uid-31)"></path></svg>