<svg xmlns="http://www.w3.org/2000/svg" fill="none" aria-hidden="true" viewBox="0 0 24 24" role="img"><path fill="var(--icon-color, #001e00)" vector-effect="non-scaling-stroke" stroke="var(--icon-color, #001e00)" stroke-miterlimit="10" stroke-width=".4" d="M9.893 6.726a.44.44 0 100-.88.44.44 0 000 .88zm3.522 0a.44.44 0 100-.88.44.44 0 000 .88z"/><path vector-effect="non-scaling-stroke" stroke="var(--icon-color, #001e00)" stroke-linecap="round" stroke-linejoin="round" stroke-width="1.5" d="M11.656 3.83a5 5 0 00-5.23 4.82h10.46a5 5 0 00-5.23-4.82zm-2.501.58L8.375 3m5.791 1.41l.77-1.41"/><path vector-effect="non-scaling-stroke" stroke="var(--icon-color, #001e00)" stroke-linecap="round" stroke-linejoin="round" stroke-width="1.5" d="M16.896 8.648H6.426v9.2h10.47v-9.2zM4 8.648v6.3m15.314-6.3v6.3M9.57 17.85V21m4.174-3.15V21"/></svg>